<svg xmlns="http://www.w3.org/2000/svg" viewBox="0 0 420 260" preserveAspectRatio="none">

<defs>
  <linearGradient id="gold" x1="0" y1="0" x2="0" y2="1">
    <stop offset="0" stop-color="#fff9c6"/>
    <stop offset=".18" stop-color="#ffd95d"/>
    <stop offset=".45" stop-color="#c97a10"/>
    <stop offset=".7" stop-color="#6a3505"/>
    <stop offset="1" stop-color="#f5b52a"/>
  </linearGradient>
  <linearGradient id="gold2" x1="0" y1="0" x2="1" y2="1">
    <stop offset="0" stop-color="#fff2a0"/>
    <stop offset=".42" stop-color="#c8790d"/>
    <stop offset="1" stop-color="#2b1705"/>
  </linearGradient>
  <linearGradient id="dark" x1="0" y1="0" x2="0" y2="1">
    <stop offset="0" stop-color="#30333b"/>
    <stop offset=".46" stop-color="#171920"/>
    <stop offset="1" stop-color="#090a0f"/>
  </linearGradient>
  <linearGradient id="purple" x1="0" y1="0" x2="0" y2="1">
    <stop offset="0" stop-color="#d293ff"/>
    <stop offset=".48" stop-color="#7a2bd1"/>
    <stop offset="1" stop-color="#32105d"/>
  </linearGradient>
  <filter id="shadow" x="-20%" y="-20%" width="140%" height="150%">
    <feDropShadow dx="0" dy="5" stdDeviation="3" flood-color="#000" flood-opacity=".7"/>
    <feDropShadow dx="0" dy="0" stdDeviation="4" flood-color="#ffcf45" flood-opacity=".25"/>
  </filter>
  <filter id="innerNoise">
    <feTurbulence type="fractalNoise" baseFrequency="0.75" numOctaves="3" seed="7" result="n"/>
    <feColorMatrix in="n" type="matrix" values="0 0 0 0 0.9 0 0 0 0 0.75 0 0 0 0 0.45 0 0 0 .08 0"/>
    <feBlend mode="overlay" in2="SourceGraphic"/>
  </filter>
</defs>

<rect x="18" y="18" width="384" height="224" rx="20" fill="url(#dark)" stroke="#673705" stroke-width="8" filter="url(#shadow)"/>
<rect x="29" y="29" width="362" height="202" rx="14" fill="none" stroke="#f2c75b" stroke-width="3" opacity=".72"/>
<rect x="40" y="40" width="340" height="180" rx="10" fill="none" stroke="#000" stroke-width="2" opacity=".45"/>
<path d="M18 52L52 18h45L58 58v34H18zM402 52l-34-34h-45l39 40v34h40zM18 208l34 34h45l-39-40v-34H18zM402 208l-34 34h-45l39-40v-34h40z" fill="url(#gold)" stroke="#311903" stroke-width="4"/>
<path d="M52 18h316M52 242h316" stroke="#ffe68c" stroke-width="4" opacity=".6"/>
<rect x="45" y="46" width="330" height="168" rx="8" fill="url(#dark)" opacity=".55" filter="url(#innerNoise)"/>
</svg>
